<svg width="26" height="27" viewBox="0 0 26 27" fill="none" xmlns="http://www.w3.org/2000/svg">
<path fill-rule="evenodd" clip-rule="evenodd" d="M2.20997 23.4919V20.4686C2.20997 20.1841 2.32306 19.9113 2.52437 19.7101C2.72567 19.5089 2.9987 19.3959 3.28339 19.3959H17.4674C17.7521 19.3959 18.0251 19.2828 18.2264 19.0816C18.4277 18.8805 18.5408 18.6076 18.5408 18.3231V15.4891C17.9608 15.4891 17.4045 15.2589 16.9944 14.849C16.5842 14.4391 16.3538 13.8831 16.3538 13.3035C16.3538 12.7238 16.5842 12.1678 16.9944 11.7579C17.4045 11.348 17.9608 11.1177 18.5408 11.1177V8.2781C18.5408 7.99359 18.4277 7.72074 18.2264 7.51956C18.0251 7.31838 17.7521 7.20534 17.4674 7.20534H3.28339C2.9987 7.20534 2.72567 7.09231 2.52437 6.89113C2.32306 6.68994 2.20997 6.41709 2.20997 6.13258V3.11506C2.20997 2.70599 2.29059 2.30091 2.44723 1.92297C2.60387 1.54504 2.83346 1.20166 3.1229 0.912397C3.41233 0.62314 3.75594 0.393661 4.1341 0.237116C4.51226 0.0805704 4.91758 0 5.3269 0H12.8752C19.7635 0 25.5381 6.41942 25.5381 13.3035C25.5381 20.1875 19.7635 26.6356 12.8752 26.6356H5.30393C4.47728 26.6356 3.68447 26.3074 3.09994 25.7232C2.5154 25.139 2.18701 24.3467 2.18701 23.5205L2.20997 23.4919ZM2.18701 15.4891C2.61956 15.4891 3.0424 15.3609 3.40205 15.1208C3.7617 14.8806 4.04202 14.5393 4.20755 14.1399C4.37308 13.7405 4.41639 13.301 4.332 12.8771C4.24762 12.4531 4.03932 12.0636 3.73346 11.7579C3.4276 11.4523 3.03791 11.2441 2.61368 11.1598C2.18944 11.0754 1.7497 11.1187 1.35008 11.2841C0.950454 11.4496 0.608888 11.7297 0.368576 12.0892C0.128264 12.4486 0 12.8712 0 13.3035C0.00151521 13.8827 0.232416 14.4377 0.642233 14.8473C1.05205 15.2569 1.60745 15.4876 2.18701 15.4891ZM10.3496 15.4891C10.7824 15.4903 11.2058 15.363 11.5662 15.1236C11.9266 14.8841 12.2078 14.5432 12.3742 14.1439C12.5406 13.7446 12.5847 13.3049 12.501 12.8806C12.4173 12.4562 12.2094 12.0662 11.9038 11.76C11.5982 11.4537 11.2085 11.245 10.7841 11.1602C10.3597 11.0754 9.91966 11.1183 9.5197 11.2836C9.11974 11.4488 8.77784 11.729 8.53727 12.0885C8.2967 12.4481 8.16829 12.8709 8.16829 13.3035C8.16829 13.8822 8.39792 14.4372 8.80682 14.847C9.21572 15.2567 9.77053 15.4876 10.3496 15.4891Z" fill="#FF3F46"/>
</svg>
