<svg xmlns="http://www.w3.org/2000/svg" width="126" height="23" viewBox="0 0 126 23" fill="none">
  <g clip-path="url(#clip0_679_283)">
    <path d="M35.048 21.5037L23.6904 0.53003C23.512 0.201693 23.1717 0 22.7985 0C22.4253 0 22.085 0.204038 21.9066 0.53003L17.9001 7.92934L13.8912 0.53003C13.7128 0.201693 13.3725 0 12.9993 0C12.6261 0 12.2858 0.204038 12.1074 0.53003L0.749738 21.5037C0.580747 21.8156 0.590135 22.2003 0.770862 22.5051C0.953937 22.81 1.28723 23 1.64164 23H6.29126C6.66211 23 7.00479 22.7983 7.18317 22.4723L10.854 15.7344L12.2694 18.3306L10.5489 21.5061C10.3799 21.818 10.387 22.2026 10.57 22.5075C10.7531 22.8124 11.0864 23.0023 11.4408 23.0023H16.0904C16.4613 23.0023 16.804 22.8007 16.9823 22.4747L20.6532 15.7367L24.3241 22.4747C24.5025 22.8007 24.8428 23.0023 25.216 23.0023H27.2017H34.1608C34.5153 23.0023 34.8509 22.8124 35.0316 22.5075C35.2123 22.2026 35.2217 21.818 35.0527 21.5061L35.048 21.5037ZM11.7436 13.1288C11.7366 13.1171 11.7295 13.1053 11.7225 13.0936C11.7131 13.0795 11.706 13.0655 11.6967 13.0514C11.6873 13.0373 11.6779 13.0256 11.6685 13.0115C11.6591 12.9975 11.6474 12.9834 11.6356 12.9693C11.6262 12.9576 11.6169 12.9459 11.6051 12.9365C11.5934 12.9224 11.5793 12.9083 11.5676 12.8966C11.5582 12.8872 11.5464 12.8778 11.5371 12.8685C11.523 12.8544 11.5089 12.8427 11.4925 12.8286C11.4831 12.8216 11.4713 12.8122 11.4619 12.8051C11.4455 12.7934 11.4291 12.7793 11.4127 12.77C11.4033 12.7629 11.3915 12.7582 11.3821 12.7512C11.3681 12.7418 11.354 12.7324 11.3375 12.7254C11.3329 12.7231 11.3282 12.7207 11.3235 12.7184C11.3164 12.7137 11.3094 12.7113 11.3023 12.709C11.1568 12.6363 11.0043 12.6011 10.8517 12.6034C10.7273 12.6034 10.6029 12.6269 10.4832 12.6738C10.4785 12.6738 10.4762 12.6762 10.4715 12.6785C10.4503 12.6879 10.4292 12.6973 10.4104 12.7066C10.4011 12.7113 10.3893 12.716 10.3799 12.7207C10.3752 12.7207 10.3705 12.7254 10.3682 12.7277C10.3541 12.7348 10.3424 12.7442 10.3306 12.7512C10.3189 12.7582 10.3048 12.7653 10.2931 12.7747C10.2767 12.784 10.2626 12.7958 10.2485 12.8075C10.2368 12.8169 10.225 12.8262 10.2133 12.8356C10.1992 12.8474 10.1851 12.8591 10.1734 12.8708C10.1616 12.8802 10.1499 12.8919 10.1405 12.9036C10.1288 12.9154 10.1171 12.9294 10.1053 12.9412C10.0936 12.9529 10.0842 12.9646 10.0748 12.9763C10.0631 12.9904 10.0537 13.0045 10.0443 13.0186C10.0349 13.0326 10.0255 13.0444 10.0161 13.0584C10.0067 13.0725 9.99735 13.0866 9.99031 13.1006C9.98327 13.1124 9.97622 13.1217 9.96918 13.1335L5.6951 20.9784H3.35034L12.9993 3.14265L16.7453 10.0588L13.4171 16.2034L11.7413 13.1288H11.7436ZM25.8145 20.9737L21.5404 13.1288C21.5334 13.1171 21.5264 13.1053 21.5193 13.096C21.5099 13.0819 21.5029 13.0678 21.4935 13.0537C21.4841 13.0397 21.4747 13.0279 21.4653 13.0139C21.4559 12.9998 21.4442 12.9857 21.4348 12.974C21.4254 12.9623 21.4137 12.9505 21.4043 12.9388C21.3926 12.9247 21.3808 12.913 21.3691 12.9013C21.3574 12.8896 21.3456 12.8802 21.3339 12.8685C21.3198 12.8567 21.3081 12.845 21.294 12.8333C21.2823 12.8239 21.2705 12.8145 21.2564 12.8051C21.2423 12.7934 21.2283 12.784 21.2118 12.7723C21.2001 12.7653 21.186 12.7559 21.1743 12.7489C21.1625 12.7418 21.1485 12.7324 21.1367 12.7254C21.132 12.7254 21.1297 12.7207 21.125 12.7207C21.1156 12.716 21.1039 12.7113 21.0945 12.7066C21.0734 12.6973 21.0546 12.6879 21.0335 12.6785C21.0288 12.6785 21.0264 12.6762 21.0217 12.6738C20.902 12.6269 20.7776 12.6034 20.6532 12.6034C20.5007 12.6034 20.3481 12.6386 20.2026 12.709C20.1955 12.7113 20.1885 12.716 20.1815 12.7184C20.1768 12.7207 20.1721 12.7231 20.1674 12.7254C20.1533 12.7348 20.1392 12.7442 20.1228 12.7512C20.1134 12.7582 20.1017 12.7629 20.0923 12.77C20.0758 12.7817 20.0594 12.7934 20.043 12.8051C20.0336 12.8122 20.0219 12.8216 20.0125 12.8286C19.996 12.8403 19.982 12.8544 19.9679 12.8685C19.9585 12.8778 19.9467 12.8872 19.9374 12.8966C19.9233 12.9107 19.9115 12.9247 19.8998 12.9365C19.8904 12.9482 19.8787 12.9576 19.8693 12.9693C19.8576 12.9834 19.8482 12.9975 19.8364 13.0115C19.827 13.0232 19.8177 13.0373 19.8083 13.0514C19.7989 13.0655 19.7918 13.0795 19.7824 13.0936C19.7754 13.1053 19.7684 13.1171 19.7613 13.1288L15.4872 20.9737H13.1425L22.7985 3.14265L32.4545 20.9737H25.8145Z" fill="#3B92CC"/>
    <path d="M102.288 17.3958V16.0379C101.899 16.4249 101.439 16.7485 100.908 17.0088C100.375 17.2668 99.8003 17.3958 99.183 17.3958C98.7229 17.3958 98.2582 17.3278 97.7911 17.1918C97.3241 17.0557 96.9039 16.8353 96.5284 16.5351C96.1552 16.2325 95.8501 15.8385 95.6107 15.3507C95.3736 14.8629 95.2539 14.2742 95.2539 13.5824C95.2539 12.9492 95.3689 12.4051 95.5989 11.9454C95.8289 11.4857 96.1458 11.1058 96.5472 10.8033C96.9485 10.5007 97.425 10.2779 97.9719 10.1349C98.5187 9.99179 99.1149 9.91909 99.7627 9.91909C100.798 9.91909 101.64 10.0622 102.286 10.3506V9.51101C102.286 8.89421 102.103 8.41812 101.737 8.08744C101.37 7.75676 100.842 7.59259 100.152 7.59259C99.5632 7.59259 99.0351 7.65122 98.568 7.76614C98.1009 7.88105 97.6433 8.06164 97.1973 8.30555L96.3336 6.62399C96.8804 6.29331 97.4625 6.04237 98.0822 5.86882C98.6995 5.69527 99.413 5.61084 100.218 5.61084C101.483 5.61084 102.509 5.92276 103.293 6.54895C104.077 7.17513 104.469 8.12496 104.469 9.40548V17.4028H102.291L102.288 17.3958ZM102.288 12.33C101.985 12.1729 101.631 12.0509 101.22 11.9642C100.81 11.8774 100.303 11.8352 99.6993 11.8352C98.9811 11.8352 98.4131 11.9853 97.9953 12.2878C97.5775 12.5903 97.3686 12.9984 97.3686 13.5167C97.3686 14.0772 97.547 14.5299 97.9085 14.8746C98.2676 15.2194 98.8145 15.3929 99.5491 15.3929C100.152 15.3929 100.695 15.2428 101.178 14.9403C101.659 14.6378 102.03 14.3071 102.288 13.9483V12.3324V12.33Z" fill="#1C164A"/>
    <path d="M123.191 17.3958V16.0379C122.801 16.4249 122.341 16.7485 121.81 17.0088C121.278 17.2668 120.703 17.3958 120.085 17.3958C119.625 17.3958 119.161 17.3278 118.693 17.1918C118.226 17.0557 117.806 16.8353 117.431 16.5351C117.058 16.2325 116.752 15.8385 116.513 15.3507C116.276 14.8629 116.156 14.2742 116.156 13.5824C116.156 12.9492 116.271 12.4051 116.501 11.9454C116.731 11.4857 117.048 11.1058 117.45 10.8033C117.851 10.5007 118.327 10.2779 118.874 10.1349C119.421 9.99179 120.017 9.91909 120.665 9.91909C121.7 9.91909 122.543 10.0622 123.188 10.3506V9.51101C123.188 8.89421 123.005 8.41812 122.639 8.08744C122.273 7.75676 121.745 7.59259 121.055 7.59259C120.466 7.59259 119.937 7.65122 119.47 7.76614C119.003 7.88105 118.546 8.06164 118.1 8.30555L117.236 6.62399C117.783 6.29331 118.365 6.04237 118.985 5.86882C119.602 5.69527 120.315 5.61084 121.12 5.61084C122.385 5.61084 123.411 5.92276 124.195 6.54895C124.979 7.17513 125.371 8.12496 125.371 9.40548V17.4028H123.193L123.191 17.3958ZM123.191 12.33C122.888 12.1729 122.533 12.0509 122.123 11.9642C121.712 11.8774 121.205 11.8352 120.602 11.8352C119.883 11.8352 119.315 11.9853 118.898 12.2878C118.48 12.5903 118.271 12.9984 118.271 13.5167C118.271 14.0772 118.449 14.5299 118.811 14.8746C119.17 15.2194 119.717 15.3929 120.451 15.3929C121.055 15.3929 121.597 15.2428 122.08 14.9403C122.562 14.6378 122.932 14.3071 123.191 13.9483V12.3324V12.33Z" fill="#1C164A"/>
    <path d="M50.3345 17.3959V10.7565C50.3345 9.60727 50.1561 8.80285 49.797 8.34318C49.4402 7.8835 48.8957 7.65367 48.1657 7.65367C47.4358 7.65367 46.8748 7.90461 46.5228 8.40884C46.173 8.91307 45.997 9.62369 45.997 10.543V17.3982H43.7532V10.7588C43.7532 9.60962 43.5748 8.80519 43.2157 8.34552C42.8566 7.88585 42.3144 7.65601 41.5844 7.65601C40.8545 7.65601 40.2935 7.90696 39.9415 8.41119C39.5917 8.91542 39.4157 9.62604 39.4157 10.5454V17.4006H37.1719V5.60391H39.4157L39.3946 6.9196C39.6809 6.50214 40.0565 6.18084 40.5165 5.94866C40.9765 5.71883 41.5023 5.60391 42.0914 5.60391C42.8683 5.60391 43.5044 5.74462 43.9996 6.02371C44.4949 6.3028 44.8939 6.71791 45.1966 7.26201C45.3985 7.00403 45.6121 6.77419 45.8351 6.5725C46.058 6.37081 46.3068 6.1996 46.5814 6.0542C46.856 5.91114 47.1612 5.79856 47.5015 5.72117C47.8395 5.64143 48.2338 5.60156 48.6798 5.60156C50.0059 5.60156 50.987 6.02606 51.6207 6.8727C52.2544 7.72168 52.5736 8.98578 52.5736 10.6673V17.3935H50.3298L50.3345 17.3959Z" fill="#1C164A"/>
    <path d="M61.702 17.396V16.0803C61.4133 16.4978 61.0143 16.8214 60.505 17.0512C59.9933 17.2811 59.4441 17.396 58.855 17.396C57.5312 17.396 56.529 16.9715 55.846 16.1249C55.163 15.2782 54.8203 14.0118 54.8203 12.3302V5.60635H57.0641V12.2458C57.0641 13.395 57.2683 14.1994 57.6767 14.6591C58.0851 15.1187 58.6531 15.3486 59.3831 15.3486C60.113 15.3486 60.6998 15.0976 61.1012 14.5934C61.5025 14.0915 61.702 13.3786 61.702 12.4592V5.604H63.9459V17.396H61.702Z" fill="#1C164A"/>
    <path d="M66.1758 17.3959V2.24311L68.4196 1.12207V17.3959H66.1758Z" fill="#1C164A"/>
    <path d="M81.2595 5.604H79.0156V17.3936H81.2595V5.604Z" fill="#1C164A"/>
    <path d="M90.8112 17.3959V16.0802C90.3935 16.4531 89.9475 16.7673 89.4734 17.0183C88.9993 17.2692 88.4594 17.3959 87.8562 17.3959C87.253 17.3959 86.685 17.2809 86.1522 17.0511C85.6194 16.8213 85.1571 16.4624 84.7604 15.9723C84.3637 15.4845 84.0563 14.8559 83.8333 14.0867C83.6103 13.3174 83.5 12.3958 83.5 11.3169C83.5 10.3554 83.622 9.51342 83.8661 8.79577C84.1102 8.07812 84.4388 7.48008 84.8472 7.00634C85.258 6.53259 85.7321 6.1808 86.2719 5.95097C86.8118 5.72113 87.3751 5.60621 87.9642 5.60621C88.5533 5.60621 89.0791 5.7352 89.5814 5.99318C90.0836 6.25116 90.4944 6.5537 90.8112 6.89845V2.24311L93.0105 1.12207V17.3982H90.8112V17.3959ZM90.8324 9.14053C90.7033 8.96698 90.546 8.79577 90.3606 8.62222C90.1752 8.44867 89.9663 8.29154 89.7386 8.14848C89.5086 8.00542 89.2621 7.88581 88.9969 7.792C88.7317 7.69819 88.4641 7.65128 88.1919 7.65128C87.3892 7.65128 86.7813 7.94913 86.3658 8.54483C85.9504 9.14053 85.7438 10.0435 85.7438 11.2489C85.7438 12.6866 85.9621 13.7279 86.3987 14.3752C86.8352 15.0224 87.4619 15.3461 88.2787 15.3461C88.8092 15.3461 89.295 15.1983 89.7386 14.9052C90.1822 14.6097 90.5484 14.2767 90.8347 13.9038V9.14053H90.8324Z" fill="#1C164A"/>
    <path d="M110.19 21.8801H107.827L109.754 16.941L105.59 5.604H107.946C107.946 5.604 110.845 13.993 110.876 14.1525C110.918 13.9789 113.892 5.604 113.892 5.604H116.161L110.193 21.8801H110.19Z" fill="#1C164A"/>
    <path d="M76.7712 7.84594V5.60152H73.9664V1.12207L71.7883 2.24311V5.60387H70.6641V7.84829H71.7883V14.408C71.7883 15.4258 72.016 16.1787 72.469 16.6665C72.922 17.1543 73.544 17.3982 74.3349 17.3982C74.7809 17.3982 75.1869 17.3513 75.5531 17.2575C75.9192 17.1637 76.2408 17.0394 76.5131 16.8799L76.7712 14.9193C76.5694 15.0295 76.3183 15.128 76.0155 15.2171C75.7127 15.3062 75.4193 15.3508 75.1306 15.3508C74.7128 15.3508 74.4147 15.2593 74.2364 15.0717C74.0556 14.8864 73.9664 14.5276 73.9664 13.9999V7.84829H76.7712V7.84594Z" fill="#1C164A"/>
    <path d="M81.2595 4.48055V2.24316L79.0156 3.3642V4.48055H81.2595Z" fill="#1C164A"/>
  </g>
  <defs>
    <clipPath id="clip0_679_283">
      <rect width="124.744" height="23.0023" fill="white" transform="translate(0.628906)"/>
    </clipPath>
  </defs>
</svg>